<?xml version="1.0" standalone="no"?>
<!DOCTYPE svg PUBLIC "-//W3C//DTD SVG 20010904//EN"
 "http://www.w3.org/TR/2001/REC-SVG-20010904/DTD/svg10.dtd">
<svg version="1.0" xmlns="http://www.w3.org/2000/svg"
 width="260.000000pt" height="260.000000pt" viewBox="0 0 260.000000 260.000000"
 preserveAspectRatio="xMidYMid meet">
<metadata>
Created by potrace 1.11, written by Peter Selinger 2001-2013
</metadata>
<g transform="translate(0.000000,260.000000) scale(0.100000,-0.100000)"
fill="#000000" stroke="none">
<path d="M360 1806 l0 -676 333 0 c375 1 427 8 544 66 235 118 349 393 309
744 -24 213 -140 393 -304 471 -126 61 -136 62 -524 66 l-358 5 0 -676z m631
410 c147 -34 236 -140 257 -306 8 -66 8 -203 0 -245 -18 -90 -66 -176 -124
-220 -67 -51 -121 -63 -301 -64 -90 -1 -163 2 -164 6 -1 13 -1 795 0 821 1 22
3 22 139 22 78 0 161 -6 193 -14z"/>
<path d="M1739 2453 c-1 -5 -2 -384 -3 -843 -1 -459 -6 -855 -10 -879 -27
-149 -123 -220 -281 -208 -160 13 -229 78 -262 247 -3 14 -6 72 -7 130 l-3
105 -223 3 c-148 1 -226 -1 -230 -8 -12 -20 -2 -304 13 -377 41 -190 172 -354
352 -441 115 -56 213 -75 380 -76 177 -1 276 11 350 44 213 92 317 199 384
397 11 32 23 79 26 105 3 26 8 64 11 85 7 40 12 1661 5 1701 l-3 22 -249 0
c-137 0 -250 -3 -250 -7z"/>
</g>
</svg>
