<svg version="1" xmlns="http://www.w3.org/2000/svg" width="346.667" height="346.667" viewBox="0 0 260.000000 260.000000"><path d="M0 130v130h260V0H0v130zm100.5-66.6c12.3 3.6 20.5 8.3 29 17 13 13 18.5 27.3 18.5 47.6 0 20-5.5 33.6-18.9 47.1-6.1 6.1-9.5 8.5-17.1 12.2-15.9 7.8-17.2 8-53.7 8.5l-32.3.3V60.9l34.3.4c28.7.3 35.2.6 40.2 2.1zM234 109.2c0 27-.5 51.4-1 55.3-2.1 14.4-9.7 25.1-21.7 30.7-5.3 2.5-8.2 3.2-15.8 3.6-10.9.5-17.6-.8-25.8-5.1-6.7-3.5-11-8.5-14.3-16.5-3.6-8.8-3.8-8.6 7.9-11.2 5.6-1.3 10.7-2.5 11.3-2.7.6-.2 1.4.9 1.7 2.6.3 1.6 2 4.5 3.7 6.5 7.5 8.5 21.2 6.9 26.1-3.1l2.4-4.8.3-51.8.3-51.7H234v48.2z"/><path d="M50 128.5v46.8l15.8-.6c18.1-.7 25.6-2.2 35.4-7.4 12-6.3 18.9-16.6 21-31.2 2.1-15.1-1.8-30.3-10.3-39.6-9.5-10.3-19.2-13.4-44.1-14.2L50 81.7v46.8z"/></svg>