<?xml version="1.0" encoding="utf-8" standalone="yes"?>
<!DOCTYPE svg PUBLIC "-//W3C//DTD SVG 1.1//EN" "http://www.w3.org/Graphics/SVG/1.1/DTD/svg11.dtd">
<svg xmlns="http://www.w3.org/2000/svg" xmlns:xlink="http://www.w3.org/1999/xlink" xmlns:dc="http://purl.org/dc/elements/1.1/" xmlns:cc="http://web.resource.org/cc/" xmlns:rdf="http://www.w3.org/1999/02/22-rdf-syntax-ns#" xmlns:sodipodi="http://sodipodi.sourceforge.net/DTD/sodipodi-0.dtd" xmlns:inkscape="http://www.inkscape.org/namespaces/inkscape" version="1.1" baseProfile="full" width="100px" height="100px" viewBox="0 0 100 100" preserveAspectRatio="xMidYMid meet" id="svg_document" style="zoom: 4;"><title id="svg_document_title">Untitled.svg</title><defs id="svg_document_defs"></defs><g id="main_group"></g><polygon points="245,199 218,174 191,179 304,151 1,149 " stroke="#000000" id="polygon1" stroke-width="3px" fill="#ffffff" transform=""></polygon><polygon points="108,81" stroke="#000000" id="polygon2" stroke-width="3px" fill="#ffffff" transform=""></polygon><line stroke="#000000" y1="152px" id="line1" x1="155px" stroke-width="3px" y2="204px" x2="232px" transform=""></line><polygon points="268,216 148,95" stroke="#000000" id="polygon3" stroke-width="3px" fill="#ffffff" transform=""></polygon><polygon points="7,4 6,96 90,97 17,86" stroke="none" id="polygon4" stroke-width="3px" fill="#c8cafb" transform="" visibility="visible"></polygon><polygon points="6,96 90,97 17,86" stroke="none" id="polygon15" stroke-width="3px" fill="#9193b8" transform="" visibility="visible"></polygon><polygon points="16,11" stroke="#000000" id="polygon5" stroke-width="3px" fill="#ffffff" transform=""></polygon><polygon points="8.25,3.75" stroke="#000000" id="polygon6" stroke-width="3px" fill="#ffffff" transform="" visibility="visible"></polygon><polygon points="9,5.75" stroke="#000000" id="polygon7" stroke-width="1px" fill="#ffffff" transform=""></polygon><polygon points="10.5,7.25" stroke="#000000" id="polygon8" stroke-width="1px" fill="#ffffff" transform=""></polygon><polygon points="9,9.25" stroke="#000000" id="polygon9" stroke-width="1px" fill="#ffffff" transform=""></polygon><polygon points="8.25,4.75 18.25,84.5 89.25,95.75 32,73.25" stroke="none" id="polygon10" stroke-width="1px" fill="#e21377" transform="" visibility="visible"></polygon><polygon points="18.25,84.5 89.25,95.75 32,73.25" stroke="none" id="polygon14" stroke-width="1px" fill="#ad115c" transform="" visibility="visible"></polygon><polygon points="9.25,4.75 33.25,71.5 87,94 46,59.25" stroke="none" id="polygon11" stroke-width="1px" fill="#5c5edc" transform="" visibility="visible"></polygon><polygon points="33.25,71.5 87,94 46,59.25" stroke="none" id="polygon12" stroke-width="1px" fill="#3c3e99" transform=""></polygon><polygon points="57.25,36" stroke="#000000" id="polygon13" stroke-width="1px" fill="#ffffff" transform=""></polygon></svg>